<svg width="18" height="20" viewBox="0 0 18 20" fill="none" xmlns="http://www.w3.org/2000/svg">
<path d="M1.41406 12.5858L1.80357 12.1963C1.92924 12.0706 2 11.9002 2 11.7224V8C2 4.13401 5.13401 1.00001 9 1C12.866 0.999991 16 4.134 16 8V11.7224C16 11.9001 16.0706 12.0706 16.1963 12.1963L16.5858 12.5858C16.7048 12.7048 16.7651 12.7651 16.8126 12.8312C16.9024 12.9563 16.9614 13.1004 16.9863 13.2524C16.9995 13.3329 16.9997 13.4172 16.9997 13.5859C16.9997 13.9715 16.9997 14.1643 16.9473 14.3198C16.8475 14.6156 16.616 14.848 16.3201 14.9478C16.1652 15 15.973 15 15.5905 15H12V16C12 17.6569 10.6569 19 9 19C7.34315 19 6 17.6569 6 16V15H2.40956C2.02701 15 1.83556 15 1.68066 14.9478C1.3848 14.848 1.15225 14.6156 1.05245 14.3197C1 14.1642 1 13.9715 1 13.586C1 13.4172 1 13.3329 1.0132 13.2524C1.03815 13.1004 1.09766 12.9564 1.1875 12.8312C1.23504 12.765 1.29476 12.7051 1.41406 12.5858Z" fill="#4C2249"/>
<path d="M12 15V16C12 17.6569 10.6569 19 9 19C7.34315 19 6 17.6569 6 16V15M12 15H6M12 15H15.5905C15.973 15 16.1652 15 16.3201 14.9478C16.616 14.848 16.8475 14.6156 16.9473 14.3198C16.9997 14.1643 16.9997 13.9715 16.9997 13.5859C16.9997 13.4172 16.9995 13.3329 16.9863 13.2524C16.9614 13.1004 16.9024 12.9563 16.8126 12.8312C16.7651 12.7651 16.7048 12.7048 16.5858 12.5858L16.1963 12.1963C16.0706 12.0706 16 11.9001 16 11.7224V8C16 4.134 12.866 0.999991 9 1C5.13401 1.00001 2 4.13401 2 8V11.7224C2 11.9002 1.92924 12.0706 1.80357 12.1963L1.41406 12.5858C1.29476 12.7051 1.23504 12.765 1.1875 12.8312C1.09766 12.9564 1.03815 13.1004 1.0132 13.2524C1 13.3329 1 13.4172 1 13.586C1 13.9715 1 14.1642 1.05245 14.3197C1.15225 14.6156 1.3848 14.848 1.68066 14.9478C1.83556 15 2.02701 15 2.40956 15H6" stroke="#FFBA8E" stroke-linecap="round" stroke-linejoin="round"/>
</svg>
