<svg width="21" height="20" viewBox="0 0 21 20" fill="none" xmlns="http://www.w3.org/2000/svg">
<path d="M6.38028 6.85335C7.07627 8.30297 8.02506 9.66161 9.22664 10.8632C10.4282 12.0648 11.7869 13.0136 13.2365 13.7096C13.3612 13.7694 13.4235 13.7994 13.5024 13.8224C13.7828 13.9041 14.127 13.8454 14.3644 13.6754C14.4313 13.6275 14.4884 13.5704 14.6027 13.4561C14.9523 13.1064 15.1271 12.9316 15.3029 12.8174C15.9658 12.3864 16.8204 12.3864 17.4833 12.8174C17.6591 12.9316 17.8339 13.1064 18.1835 13.4561L18.3783 13.6509C18.9098 14.1824 19.1755 14.4481 19.3198 14.7335C19.6069 15.301 19.6069 15.9713 19.3198 16.5389C19.1755 16.8242 18.9098 17.09 18.3783 17.6214L18.2207 17.779C17.6911 18.3087 17.4263 18.5735 17.0662 18.7757C16.6667 19.0001 16.0462 19.1615 15.588 19.1601C15.1751 19.1589 14.8928 19.0788 14.3284 18.9186C11.295 18.0576 8.43264 16.4332 6.04466 14.0452C3.65668 11.6572 2.03221 8.79483 1.17124 5.76144C1.01103 5.19699 0.930924 4.91477 0.929696 4.50182C0.928332 4.0436 1.08969 3.42311 1.31411 3.0236C1.51636 2.66357 1.78117 2.39876 2.3108 1.86913L2.46843 1.7115C2.99987 1.18006 3.2656 0.914335 3.55098 0.76999C4.11854 0.48292 4.7888 0.48292 5.35636 0.76999C5.64174 0.914334 5.90747 1.18006 6.43891 1.7115L6.63378 1.90637C6.98338 2.25597 7.15819 2.43078 7.27247 2.60655C7.70347 3.26944 7.70347 4.12403 7.27247 4.78692C7.15819 4.96269 6.98338 5.1375 6.63378 5.4871C6.51947 5.60142 6.46231 5.65857 6.41447 5.72538C6.24446 5.96281 6.18576 6.30707 6.26748 6.58743C6.29048 6.66632 6.32041 6.72866 6.38028 6.85335Z" fill="#4C2249" stroke="#FFBA8E" stroke-linecap="round" stroke-linejoin="round"/>
</svg>
