<svg width="17" height="17" viewBox="0 0 17 17" fill="none" xmlns="http://www.w3.org/2000/svg">
<path d="M5 8.8125H16.2941M16.2941 8.8125L13.4706 6M16.2941 8.8125L13.4706 11.625" stroke="#FFBA8E" stroke-linecap="round" stroke-linejoin="round"/>
<path d="M11.3529 4.75V2.875C11.3529 2.37772 11.1546 1.90081 10.8016 1.54917C10.4486 1.19754 9.96982 1 9.47059 1H2.88235C2.38312 1 1.90434 1.19754 1.55133 1.54917C1.19832 1.90081 1 2.37772 1 2.875V14.125C1 14.6223 1.19832 15.0992 1.55133 15.4508C1.90434 15.8025 2.38312 16 2.88235 16H9.47059C9.96982 16 10.4486 15.8025 10.8016 15.4508C11.1546 15.0992 11.3529 14.6223 11.3529 14.125V12.25" stroke="#201F1F" stroke-linecap="round" stroke-linejoin="round"/>
<path d="M1 1.5L8.47442 2.43424C8.77468 2.47177 9 2.72701 9 3.02961V16.2679C9 16.6466 8.65352 16.9306 8.28221 16.8562L1 15.3982V1.5Z" fill="#4C2249"/>
</svg>
