<svg width="17" height="17" viewBox="0 0 17 17" fill="none" xmlns="http://www.w3.org/2000/svg">
<path d="M10.5372 3.5C11.2698 3.64292 11.943 4.00119 12.4708 4.52895C12.9986 5.05671 13.3568 5.72995 13.4997 6.4625M10.5372 0.5C12.0592 0.669077 13.4784 1.35063 14.5619 2.43276C15.6454 3.51488 16.3288 4.93326 16.4997 6.455M7.66998 9.3973C6.7688 8.49612 6.05721 7.47714 5.53521 6.38992C5.49031 6.2964 5.46786 6.24965 5.45061 6.19048C5.38932 5.98021 5.43334 5.72202 5.56085 5.54395C5.59673 5.49384 5.6396 5.45097 5.72533 5.36523C5.98754 5.10303 6.11864 4.97193 6.20435 4.84009C6.5276 4.34293 6.5276 3.70199 6.20436 3.20482C6.11864 3.07299 5.98754 2.94189 5.72533 2.67968L5.57918 2.53353C5.1806 2.13495 4.98131 1.93566 4.76727 1.8274C4.3416 1.6121 3.8389 1.6121 3.41323 1.8274C3.1992 1.93566 2.99991 2.13495 2.60132 2.53353L2.4831 2.65176C2.08588 3.04897 1.88727 3.24758 1.73559 3.51761C1.56727 3.81724 1.44625 4.28261 1.44727 4.62627C1.44819 4.93598 1.50827 5.14765 1.62843 5.57098C2.27415 7.84603 3.49251 9.9928 5.2835 11.7838C7.07448 13.5748 9.22125 14.7931 11.4963 15.4389C11.9196 15.559 12.1313 15.6191 12.441 15.62C12.7847 15.621 13.25 15.5 13.5497 15.3317C13.8197 15.18 14.0183 14.9814 14.4155 14.5842L14.5338 14.466C14.9323 14.0674 15.1316 13.8681 15.2399 13.654C15.4552 13.2284 15.4552 12.7257 15.2399 12.3C15.1316 12.086 14.9323 11.8867 14.5338 11.4881L14.3876 11.3419C14.1254 11.0797 13.9943 10.9486 13.8625 10.8629C13.3653 10.5397 12.7244 10.5397 12.2272 10.8629C12.0954 10.9486 11.9643 11.0797 11.702 11.3419C11.6163 11.4277 11.5734 11.4705 11.5233 11.5064C11.3453 11.6339 11.0871 11.678 10.8768 11.6167C10.8176 11.5994 10.7709 11.577 10.6774 11.5321C9.59015 11.0101 8.57116 10.2985 7.66998 9.3973Z" stroke="#FF6600" stroke-linecap="round" stroke-linejoin="round"/>
</svg>
