<svg width="26" height="28" viewBox="0 0 26 28" fill="none" xmlns="http://www.w3.org/2000/svg">
<path d="M1 17.0768C1 16.5103 1.46316 16.0511 2.03449 16.0511H6.17247C6.7438 16.0511 7.20696 16.5103 7.20696 17.0768V26.3075C7.20696 26.874 6.7438 27.3332 6.17247 27.3332H2.03449C1.46316 27.3332 1 26.874 1 26.3075V17.0768Z" fill="#FF6600"/>
<path d="M20.6554 8.87163C20.6554 11.1374 18.8027 12.9742 16.5174 12.9742C14.2321 12.9742 12.3794 11.1374 12.3794 8.87163C12.3794 6.60585 14.2321 4.76907 16.5174 4.76907C18.8027 4.76907 20.6554 6.60585 20.6554 8.87163Z" fill="#FF6600"/>
<path d="M7.56732 24.8071C7.30512 24.8938 7.16281 25.1766 7.24946 25.4388C7.33611 25.701 7.61891 25.8433 7.8811 25.7566L7.56732 24.8071ZM15.4829 25.7947L15.4379 25.2967L15.4379 25.2967L15.4829 25.7947ZM20.1381 24.7691L20.3559 25.2192L20.3559 25.2192L20.1381 24.7691ZM24.5863 20.7573L24.1991 20.4409L24.1991 20.4409L24.5863 20.7573ZM21.544 18.247L21.896 18.6021L21.896 18.6021L21.544 18.247ZM19.4954 20.2781L19.8474 20.6332L19.8474 20.6332L19.4954 20.2781ZM13.9312 20.6793C13.655 20.6793 13.4312 20.9032 13.4312 21.1793C13.4312 21.4555 13.655 21.6793 13.9312 21.6793V20.6793ZM24.1133 17.9948L23.8376 18.4119L23.8376 18.4119L24.1133 17.9948ZM9.29869 17.3219L9.52076 17.7699L9.52076 17.7699L9.29869 17.3219ZM14.8668 16.8169L14.9973 16.3343L14.9973 16.3343L14.8668 16.8169ZM17.0412 17.4049L16.9107 17.8875L16.9107 17.8875L17.0412 17.4049ZM17.7301 19.977L17.3781 19.6219L17.3781 19.6219L17.7301 19.977ZM16.1654 20.8243C15.9693 21.0187 15.9679 21.3353 16.1623 21.5314C16.3568 21.7275 16.6733 21.7288 16.8694 21.5344L16.1654 20.8243ZM7.8811 25.7566C8.17234 25.6604 8.60824 25.636 9.19219 25.6773C9.76598 25.7178 10.4244 25.8164 11.1387 25.9276C12.5381 26.1456 14.1597 26.4163 15.5279 26.2927L15.4379 25.2967C14.2199 25.4067 12.738 25.1646 11.2926 24.9395C10.5844 24.8293 9.88507 24.7238 9.26272 24.6798C8.65054 24.6365 8.05195 24.647 7.56732 24.8071L7.8811 25.7566ZM15.5279 26.2927C17.5609 26.1091 18.4082 26.1615 20.3559 25.2192L19.9204 24.319C18.1654 25.1681 17.5079 25.1098 15.4379 25.2967L15.5279 26.2927ZM20.3559 25.2192C22.078 24.386 23.8551 22.4427 24.9735 21.0736L24.1991 20.4409C23.0758 21.816 21.4213 23.5928 19.9204 24.319L20.3559 25.2192ZM21.192 17.892L19.1434 19.923L19.8474 20.6332L21.896 18.6021L21.192 17.892ZM17.3009 20.6793H13.9312V21.6793H17.3009V20.6793ZM19.1434 19.923C18.6554 20.4068 17.9928 20.6793 17.3009 20.6793V21.6793C18.2552 21.6793 19.1713 21.3035 19.8474 20.6332L19.1434 19.923ZM24.389 17.5777C23.3843 16.9136 22.0469 17.0444 21.192 17.892L21.896 18.6021C22.4138 18.0888 23.2271 18.0084 23.8376 18.4119L24.389 17.5777ZM24.9735 21.0736C25.8902 19.9515 25.5586 18.3507 24.389 17.5777L23.8376 18.4119C24.5552 18.8862 24.7099 19.8156 24.1991 20.4409L24.9735 21.0736ZM2.03449 16.5511H6.17247V15.5511H2.03449V16.5511ZM6.70696 17.0768V26.3075H7.70696V17.0768H6.70696ZM6.17247 26.8332H2.03449V27.8332H6.17247V26.8332ZM1.5 26.3075V17.0768H0.5V26.3075H1.5ZM2.03449 26.8332C1.73524 26.8332 1.5 26.5938 1.5 26.3075H0.5C0.5 27.1542 1.19108 27.8332 2.03449 27.8332V26.8332ZM6.70696 26.3075C6.70696 26.5938 6.47172 26.8332 6.17247 26.8332V27.8332C7.01589 27.8332 7.70696 27.1542 7.70696 26.3075H6.70696ZM6.17247 16.5511C6.47172 16.5511 6.70696 16.7905 6.70696 17.0768H7.70696C7.70696 16.2301 7.01589 15.5511 6.17247 15.5511V16.5511ZM2.03449 15.5511C1.19108 15.5511 0.5 16.2301 0.5 17.0768H1.5C1.5 16.7905 1.73524 16.5511 2.03449 16.5511V15.5511ZM7.94628 18.5504L9.52076 17.7699L9.07662 16.8739L7.50214 17.6544L7.94628 18.5504ZM12.5372 17.0639H12.9614V16.0639H12.5372V17.0639ZM14.7363 17.2996L16.9107 17.8875L17.1717 16.9222L14.9973 16.3343L14.7363 17.2996ZM17.3781 19.6219L16.1654 20.8243L16.8694 21.5344L18.0822 20.332L17.3781 19.6219ZM16.9107 17.8875C17.6923 18.0989 17.9439 19.0609 17.3781 19.6219L18.0822 20.332C19.2013 19.2224 18.689 17.3325 17.1717 16.9222L16.9107 17.8875ZM12.9614 17.0639C13.561 17.0639 14.1579 17.1432 14.7363 17.2996L14.9973 16.3343C14.3337 16.1548 13.6491 16.0639 12.9614 16.0639V17.0639ZM9.52076 17.7699C10.4571 17.3057 11.4899 17.0639 12.5372 17.0639V16.0639C11.3361 16.0639 10.1513 16.3412 9.07662 16.8739L9.52076 17.7699ZM20.1554 8.87163C20.1554 10.8572 18.5307 12.4742 16.5174 12.4742V13.4742C19.0748 13.4742 21.1554 11.4176 21.1554 8.87163H20.1554ZM16.5174 12.4742C14.5041 12.4742 12.8794 10.8572 12.8794 8.87163H11.8794C11.8794 11.4176 13.96 13.4742 16.5174 13.4742V12.4742ZM12.8794 8.87163C12.8794 6.88603 14.5041 5.26907 16.5174 5.26907V4.26907C13.96 4.26907 11.8794 6.32566 11.8794 8.87163H12.8794ZM16.5174 5.26907C18.5307 5.26907 20.1554 6.88603 20.1554 8.87163H21.1554C21.1554 6.32566 19.0748 4.26907 16.5174 4.26907V5.26907ZM12.3794 8.37163C10.3662 8.37163 8.74146 6.75467 8.74146 4.76907H7.74146C7.74146 7.31504 9.82201 9.37163 12.3794 9.37163V8.37163ZM8.74146 4.76907C8.74146 2.78347 10.3662 1.1665 12.3794 1.1665V0.166504C9.82201 0.166504 7.74146 2.2231 7.74146 4.76907H8.74146ZM12.3794 1.1665C14.3927 1.1665 16.0174 2.78347 16.0174 4.76907H17.0174C17.0174 2.2231 14.9369 0.166504 12.3794 0.166504V1.1665Z" fill="#FF6600"/>
</svg>
