<svg width="18" height="14" viewBox="0 0 18 14" fill="none" xmlns="http://www.w3.org/2000/svg">
<path d="M11.3493 5.63991L8.79828 4.16726C8.46926 3.97638 8.07828 3.97722 7.75093 4.16726C7.42359 4.35647 7.22852 4.6947 7.22852 5.07312V8.01926C7.22852 8.39684 7.42359 8.73675 7.75093 8.92512C7.91503 9.02057 8.09503 9.06745 8.27419 9.06745C8.45419 9.06745 8.63419 9.02057 8.79828 8.92512L11.3493 7.45331C11.6766 7.26326 11.8725 6.92419 11.8725 6.54661C11.8725 6.16819 11.6766 5.82912 11.3493 5.63991Z" fill="#908686"/>
<path d="M12.9917 2.55054C12.7464 2.30691 12.3479 2.30775 12.1035 2.55473C11.8598 2.80087 11.8615 3.19854 12.1076 3.44217C12.9381 4.26515 13.3953 5.36775 13.3953 6.54654C13.3953 7.72533 12.9381 8.82794 12.1076 9.65091C11.8615 9.89454 11.8598 10.2922 12.1035 10.5392C12.2265 10.6623 12.3881 10.7242 12.5497 10.7242C12.7096 10.7242 12.8695 10.6639 12.9917 10.5425C14.0617 9.48263 14.6511 8.06273 14.6511 6.54654C14.6511 5.02952 14.0617 3.61129 12.9917 2.55054Z" fill="#908686"/>
<path d="M5.89567 2.55473C5.6512 2.30775 5.25353 2.30691 5.00739 2.55054C3.93744 3.61129 3.34888 5.03035 3.34888 6.54654C3.34888 8.06356 3.93744 9.48263 5.00739 10.5434C5.12962 10.6639 5.28953 10.7242 5.44943 10.7242C5.61102 10.7242 5.77344 10.6623 5.89567 10.5392C6.14013 10.2922 6.13846 9.89454 5.89148 9.65091C5.06097 8.82794 4.60469 7.72533 4.60469 6.54654C4.60469 5.36775 5.06097 4.26515 5.89148 3.44301C6.13846 3.19854 6.14013 2.80087 5.89567 2.55473Z" fill="#908686"/>
<path d="M15.3628 0.183977C15.1175 -0.0613256 14.7198 -0.0613256 14.4745 0.183977C14.2292 0.429279 14.2292 0.826953 14.4745 1.07226C15.9379 2.5357 16.7442 4.4797 16.7442 6.54677C16.7442 8.61384 15.9379 10.5587 14.4745 12.0221C14.2292 12.2674 14.2292 12.6651 14.4745 12.9104C14.5976 13.0326 14.7583 13.0937 14.9191 13.0937C15.0798 13.0937 15.2406 13.0326 15.3628 12.9104C17.0632 11.2092 18 8.94872 18 6.54677C18 4.14398 17.0632 1.88435 15.3628 0.183977Z" fill="#908686"/>
<path d="M1.25581 6.54677C1.25581 4.4797 2.06121 2.53486 3.52465 1.07142C3.76995 0.826116 3.76995 0.429279 3.52465 0.183977C3.27935 -0.0613256 2.88251 -0.0613256 2.63721 0.183977C0.936837 1.88435 0 4.14398 0 6.54677C0 8.94872 0.936837 11.2092 2.63721 12.9104C2.75944 13.0326 2.92019 13.0937 3.08093 13.0937C3.24167 13.0937 3.40242 13.0326 3.52465 12.9104C3.76995 12.6651 3.76995 12.2674 3.52465 12.0221C2.06121 10.5587 1.25581 8.61384 1.25581 6.54677Z" fill="#908686"/>
</svg>
