<svg width="16" height="16" viewBox="0 0 16 16" fill="none" xmlns="http://www.w3.org/2000/svg">
<path d="M13.25 1.25C14.0784 1.25 14.75 1.91237 14.75 2.72945L14.75 5.25494C14.75 6.07202 14.0784 6.73439 13.25 6.73439H11C10.1716 6.73439 9.5 6.07202 9.5 5.25494L9.5 2.72945C9.5 1.91237 10.1716 1.25 11 1.25L13.25 1.25Z" stroke="#908686" stroke-width="1.5" stroke-linecap="round" stroke-linejoin="round"/>
<path d="M2.75 1.25C1.92157 1.25 1.25 1.91237 1.25 2.72945L1.25001 5.25494C1.25001 6.07202 1.92158 6.73439 2.75001 6.73439H5.00001C5.82843 6.73439 6.5 6.07202 6.5 5.25494L6.5 2.72945C6.5 1.91237 5.82843 1.25 5 1.25L2.75 1.25Z" stroke="#908686" stroke-width="1.5" stroke-linecap="round" stroke-linejoin="round"/>
<path d="M13.25 9.26563C14.0784 9.26563 14.75 9.92801 14.75 10.7451V13.2705C14.75 14.0876 14.0784 14.75 13.25 14.75H11C10.1716 14.75 9.50001 14.0876 9.50001 13.2705L9.50001 10.7451C9.50001 9.92801 10.1716 9.26563 11 9.26563H13.25Z" stroke="#908686" stroke-width="1.5" stroke-linecap="round" stroke-linejoin="round"/>
<path d="M2.75001 9.26563C1.92158 9.26563 1.25001 9.92801 1.25001 10.7451L1.25001 13.2705C1.25001 14.0876 1.92158 14.75 2.75001 14.75H5.00001C5.82843 14.75 6.50001 14.0876 6.50001 13.2705L6.5 10.7451C6.5 9.92801 5.82843 9.26563 5.00001 9.26563H2.75001Z" stroke="#908686" stroke-width="1.5" stroke-linecap="round" stroke-linejoin="round"/>
</svg>
